# xmcd CD database file
#
# Track frame offsets:
#	150
#	17225
#	21868
#	31673
#	41931
#	54494
#	65188
#	76792
#	88656
#	103334
#	117317
#	132473
#	145060
#	159216
#	173009
#	185202
#	197355
#	212597
#	229176
#	242065
#	248865
#	263377
#	276757
#	291659
#	305122
#	319570
#	333555
#	345891
#
# Disc length: 4798 seconds
#
# Revision: 0
# Processed by: cddbd v1.5.1PL2 Copyright (c) Steve Scherf et al.
# Submitted via: CDex 1.51
#
DISCID=9812bc1c
DTITLE=Tom Larson - History and Tradition of Jazz CD1
DYEAR=2005
DGENRE=Jazz
TTITLE0=Someday My Prince Will Come (Miles Davis)
TTITLE1=It's My Little Annie-So Sweet/Berta, Berta (Horace Sprott)
TTITLE2=Cross Road Blues (Robert Johnson)
TTITLE3=Just a Closer Walk with Thee (Preservation Hall Jazz Band)
TTITLE4=Maple Leaf Rag (Jelly Roll Morton)
TTITLE5=Tiger Rag (Art Tatum)
TTITLE6=Livery Stable Blues (Original Dixieland Jazz Band)
TTITLE7=Dippermouth Blues (King Oliver's Creole Jazz Band)
TTITLE8=Black Bottom Stomp (Jelly Roll Morton's Red Hot Peppers)
TTITLE9=Heebie Jeebies (Louis Armstrong and His Hot Five)
TTITLE10=West End Blues (Louis Armstrong and His Hot Five)
TTITLE11=Weather Bird (Louis Armstrong and Earl Hines)
TTITLE12=Nobody's Sweetheart (The McKenzie-Condon Chicagoans)
TTITLE13=Singin' the Blues (Bix Beiderbecke with Frankie Trumbauer and His Orchestra)
TTITLE14=Gimme a Pigfoot and a Bottle of Beer (Bessie Smith)
TTITLE15=Sweet Sue (Paul Whiteman Orchestra)
TTITLE16=Hot 'n' Anxious (Fletcher Henderson Orchestra)
TTITLE17=East St. Louis Toodle-Oo (Duke Ellington Orchestra)
TTITLE18=Boogie Woogie/I May Be Wrong (Count Basie Orchestra)
TTITLE19=I'm Getting Sentimental Over You (Tommy Dorsey Orchestra)
TTITLE20=King Porter Stomp (Benny Goodman Orchestra)
TTITLE21=Good Enough to Keep (Benny Goodman Sextet)
TTITLE22=Jack the Bear/Take it Away (Duke Ellington and His Famous Orchestra)
TTITLE23=Take the 'A' Train (Duke Ellington and His Orchestra)
TTITLE24=Jumpin' at the Woodside (Count Basie Orchestra)
TTITLE25=Body and Soul (Coleman Hawkins and His Orchestra)
TTITLE26=Back in Your Own Backyard (Billie Holiday and Lester Young)
TTITLE27=Manteca (Dizzy Gillespie and His Orchestra)
EXTD=YEAR: 2005
EXTT0=
EXTT1=
EXTT2=
EXTT3=
EXTT4=
EXTT5=
EXTT6=
EXTT7=
EXTT8=
EXTT9=
EXTT10=
EXTT11=
EXTT12=
EXTT13=
EXTT14=
EXTT15=
EXTT16=
EXTT17=
EXTT18=
EXTT19=
EXTT20=
EXTT21=
EXTT22=
EXTT23=
EXTT24=
EXTT25=
EXTT26=
EXTT27=
PLAYORDER=
